<svg width="20" height="20" viewBox="0 0 20 20" fill="none" xmlns="http://www.w3.org/2000/svg">
<path fill-rule="evenodd" clip-rule="evenodd" d="M10.3538 12.8529C10.2601 12.9465 10.133 12.9991 10.0005 12.9991C9.86797 12.9991 9.74088 12.9465 9.64713 12.8529L4.64713 7.85287C4.55881 7.75808 4.51073 7.63272 4.51302 7.50318C4.5153 7.37365 4.56778 7.25006 4.65939 7.15845C4.75099 7.06684 4.87458 7.01437 5.00412 7.01208C5.13365 7.0098 5.25902 7.05788 5.3538 7.1462L10.0005 11.7929L14.6471 7.1462C14.6929 7.09707 14.7481 7.05767 14.8094 7.03035C14.8708 7.00302 14.937 6.98832 15.0041 6.98714C15.0713 6.98595 15.1379 6.9983 15.2002 7.02345C15.2625 7.0486 15.319 7.08603 15.3665 7.13351C15.414 7.18099 15.4514 7.23754 15.4766 7.2998C15.5017 7.36206 15.514 7.42875 15.5129 7.49588C15.5117 7.56302 15.497 7.62923 15.4697 7.69056C15.4423 7.75189 15.4029 7.80709 15.3538 7.85287L10.3538 12.8529Z" fill="currentColor"/>
</svg>
