<svg width="80" height="26" viewBox="0 0 80 26" fill="none" xmlns="http://www.w3.org/2000/svg">
<path fill-rule="evenodd" clip-rule="evenodd" d="M8.44996 4.87598C8.63358 4.87601 8.81219 4.93355 8.95876 5.03988C9.10534 5.14622 9.21191 5.29556 9.26234 5.46531L10.1784 8.54848C10.3756 9.21247 10.7456 9.81717 11.2535 10.3055C11.7613 10.7937 12.3903 11.1495 13.0809 11.3391L16.2876 12.2199C16.464 12.2685 16.6192 12.371 16.7297 12.5119C16.8402 12.6528 16.8999 12.8245 16.8999 13.001C16.8999 13.1774 16.8402 13.3491 16.7297 13.49C16.6192 13.631 16.464 13.7335 16.2876 13.7821L13.0809 14.6628C12.3903 14.8524 11.7613 15.2082 11.2535 15.6965C10.7456 16.1848 10.3756 16.7895 10.1784 17.4535L9.26234 20.5366C9.2118 20.7063 9.10518 20.8555 8.95861 20.9617C8.81205 21.0679 8.6335 21.1254 8.44996 21.1254C8.26642 21.1254 8.08787 21.0679 7.9413 20.9617C7.79474 20.8555 7.68812 20.7063 7.63758 20.5366L6.72154 17.4535C6.5243 16.7895 6.15428 16.1848 5.64643 15.6965C5.13858 15.2082 4.50965 14.8524 3.81905 14.6628L0.612339 13.7821C0.435896 13.7335 0.280706 13.631 0.170231 13.49C0.0597549 13.3491 0 13.1774 0 13.001C0 12.8245 0.0597549 12.6528 0.170231 12.5119C0.280706 12.371 0.435896 12.2685 0.612339 12.2199L3.81905 11.3391C4.50965 11.1495 5.13858 10.7937 5.64643 10.3055C6.15428 9.81717 6.5243 9.21247 6.72154 8.54848L7.63758 5.46531C7.68801 5.29556 7.79458 5.14622 7.94116 5.03988C8.08773 4.93355 8.26634 4.87601 8.44996 4.87598ZM18.5906 1.62598C18.7792 1.62588 18.9623 1.68639 19.1109 1.79789C19.2596 1.90939 19.3652 2.06547 19.4109 2.24131L19.7016 3.36364C19.9675 4.38198 20.7946 5.17714 21.8537 5.43281L23.021 5.71231C23.2042 5.75595 23.367 5.85732 23.4833 6.00026C23.5997 6.1432 23.6629 6.31947 23.6629 6.50098C23.6629 6.68248 23.5997 6.85875 23.4833 7.00169C23.367 7.14463 23.2042 7.246 23.021 7.28964L21.8537 7.56914C20.7946 7.82481 19.9675 8.61998 19.7016 9.63831L19.4109 10.7606C19.3655 10.9368 19.2601 11.0933 19.1114 11.2052C18.9628 11.317 18.7794 11.3778 18.5906 11.3778C18.4019 11.3778 18.2185 11.317 18.0699 11.2052C17.9212 11.0933 17.8158 10.9368 17.7704 10.7606L17.4797 9.63831C17.3497 9.13828 17.0807 8.68162 16.7017 8.31716C16.3226 7.9527 15.8477 7.69415 15.3276 7.56914L14.1603 7.28964C13.9771 7.246 13.8143 7.14463 13.698 7.00169C13.5816 6.85875 13.5184 6.68248 13.5184 6.50098C13.5184 6.31947 13.5816 6.1432 13.698 6.00026C13.8143 5.85732 13.9771 5.75595 14.1603 5.71231L15.3276 5.43281C15.8477 5.30781 16.3226 5.04925 16.7017 4.6848C17.0807 4.32034 17.3497 3.86368 17.4797 3.36364L17.7704 2.24131C17.8161 2.06547 17.9217 1.90939 18.0703 1.79789C18.219 1.68639 18.4021 1.62588 18.5906 1.62598ZM16.9005 16.251C17.078 16.2509 17.251 16.3045 17.395 16.4043C17.539 16.504 17.6467 16.6448 17.7028 16.8067L18.1467 18.0883C18.3157 18.5726 18.7101 18.9539 19.2149 19.1153L20.5478 19.5432C20.7156 19.5974 20.8615 19.7009 20.9649 19.8391C21.0683 19.9773 21.1239 20.1432 21.1239 20.3135C21.1239 20.4837 21.0683 20.6496 20.9649 20.7878C20.8615 20.926 20.7156 21.0295 20.5478 21.0837L19.2149 21.5116C18.7112 21.6741 18.3146 22.0533 18.1467 22.5386L17.7016 23.8202C17.6453 23.9816 17.5376 24.1219 17.3939 24.2213C17.2502 24.3207 17.0776 24.3741 16.9005 24.3741C16.7235 24.3741 16.5509 24.3207 16.4072 24.2213C16.2634 24.1219 16.1558 23.9816 16.0994 23.8202L15.6544 22.5386C15.5714 22.2995 15.4316 22.0823 15.2463 21.904C15.0609 21.7258 14.8349 21.5914 14.5862 21.5116L13.2533 21.0837C13.0854 21.0295 12.9395 20.926 12.8361 20.7878C12.7328 20.6496 12.6772 20.4837 12.6772 20.3135C12.6772 20.1432 12.7328 19.9773 12.8361 19.8391C12.9395 19.7009 13.0854 19.5974 13.2533 19.5432L14.5862 19.1153C15.0899 18.9528 15.4865 18.5736 15.6544 18.0883L16.0994 16.8067C16.1554 16.645 16.2629 16.5043 16.4067 16.4046C16.5505 16.3048 16.7232 16.2511 16.9005 16.251ZM73.8028 20.258C72.5784 20.258 71.5042 19.9944 70.5803 19.4672C69.6564 18.94 68.9352 18.2142 68.4169 17.2897C67.9062 16.358 67.6508 15.2892 67.6508 14.083C67.6508 12.8625 67.9137 11.79 68.4395 10.8655C68.9653 9.93387 69.6902 9.20804 70.6141 8.68804C71.538 8.16804 72.6009 7.90804 73.8028 7.90804C75.0272 7.90804 76.1013 8.17165 77.0253 8.69887C77.9567 9.2261 78.6816 9.95554 79.1999 10.8872C79.7182 11.8117 79.9773 12.8769 79.9773 14.083C79.9773 15.2964 79.7144 16.3689 79.1886 17.3005C78.6703 18.225 77.9454 18.9508 77.014 19.478C76.0901 19.998 75.0197 20.258 73.8028 20.258ZM73.8028 17.5064C74.7868 17.5064 75.5192 17.1886 75.9999 16.553C76.4882 15.9103 76.7323 15.0869 76.7323 14.083C76.7323 13.043 76.4844 12.2125 75.9887 11.5914C75.5004 10.9703 74.7718 10.6597 73.8028 10.6597C73.1342 10.6597 72.5859 10.8042 72.1577 11.093C71.7296 11.3819 71.4103 11.7828 71.2 12.2955C70.9972 12.8083 70.8958 13.4042 70.8958 14.083C70.8958 15.1303 71.1399 15.9644 71.6282 16.5855C72.1239 17.1994 72.8488 17.5064 73.8028 17.5064ZM57.4983 25.133C58.1218 25.3497 58.779 25.458 59.4701 25.458C60.364 25.458 61.194 25.3425 61.9602 25.1114C62.7264 24.8875 63.3724 24.5444 63.8982 24.0822C64.4315 23.62 64.7958 23.0314 64.9911 22.3164C65.0587 22.0636 65.1038 21.8072 65.1263 21.5472C65.1564 21.2944 65.1714 21.0236 65.1714 20.7347V8.23304H62.4898V8.87596C62.42 8.82248 62.3487 8.77068 62.2757 8.72054C61.487 8.17887 60.5142 7.90804 59.3574 7.90804C58.1931 7.90804 57.179 8.17526 56.3152 8.70971C55.4514 9.24415 54.7791 9.97721 54.2983 10.9089C53.8251 11.8333 53.5885 12.8914 53.5885 14.083C53.5885 15.253 53.8214 16.3039 54.2871 17.2355C54.7603 18.1672 55.4176 18.9039 56.2589 19.4455C57.1002 19.9872 58.0804 20.258 59.1997 20.258C60.3482 20.258 61.3172 20.0138 62.1067 19.5252V20.6914C62.1217 21.1247 62.0053 21.4858 61.7574 21.7747C61.517 22.0708 61.194 22.2911 60.7884 22.4355C60.3827 22.5872 59.9508 22.663 59.4926 22.663C59.0645 22.663 58.6663 22.5728 58.2983 22.3922C57.9377 22.2117 57.6598 21.948 57.4645 21.6014L54.6251 22.923C54.9331 23.4286 55.3312 23.8692 55.8194 24.2447C56.3152 24.6275 56.8748 24.9236 57.4983 25.133ZM62.4898 14.083C62.4898 14.7908 62.3996 15.4119 62.2193 15.9464C62.0391 16.4808 61.7424 16.8961 61.3292 17.1922C60.9236 17.4883 60.379 17.6364 59.6954 17.6364C59.0344 17.6364 58.4936 17.4775 58.0729 17.1597C57.6523 16.8419 57.3405 16.4158 57.1377 15.8814C56.9349 15.3397 56.8335 14.7403 56.8335 14.083C56.8335 13.433 56.9387 12.8408 57.149 12.3064C57.3593 11.7647 57.6823 11.335 58.118 11.0172C58.5612 10.6922 59.1246 10.5297 59.8081 10.5297C60.4466 10.5297 60.9611 10.6778 61.3517 10.9739C61.7499 11.27 62.0391 11.6853 62.2193 12.2197C62.3996 12.7542 62.4898 13.3753 62.4898 14.083ZM45.6122 20.258C44.3878 20.258 43.3137 19.9944 42.3897 19.4672C41.4658 18.94 40.7447 18.2142 40.2264 17.2897C39.7156 16.358 39.4602 15.2892 39.4602 14.083C39.4602 12.8625 39.7231 11.79 40.2489 10.8655C40.7747 9.93387 41.4996 9.20804 42.4235 8.68804C43.3475 8.16804 44.4103 7.90804 45.6122 7.90804C46.8366 7.90804 47.9108 8.17165 48.8347 8.69887C49.7661 9.2261 50.491 9.95554 51.0093 10.8872C51.5276 11.8117 51.7868 12.8769 51.7868 14.083C51.7868 15.2964 51.5238 16.3689 50.998 17.3005C50.4797 18.225 49.7549 18.9508 48.8234 19.478C47.8995 19.998 46.8291 20.258 45.6122 20.258ZM45.6122 17.5064C46.5962 17.5064 47.3286 17.1886 47.8094 16.553C48.2976 15.9103 48.5417 15.0869 48.5417 14.083C48.5417 13.043 48.2939 12.2125 47.7981 11.5914C47.3098 10.9703 46.5812 10.6597 45.6122 10.6597C44.9437 10.6597 44.3953 10.8042 43.9672 11.093C43.539 11.3819 43.2198 11.7828 43.0094 12.2955C42.8066 12.8083 42.7052 13.4042 42.7052 14.083C42.7052 15.1303 42.9493 15.9644 43.4376 16.5855C43.9334 17.1994 44.6582 17.5064 45.6122 17.5064ZM28.1699 4.33325V19.9333H38.2205V17.1816H31.2347V4.33325H28.1699Z" fill="#5F3196"/>
</svg>
