<svg width="24" height="24" viewBox="0 0 24 24" fill="none" xmlns="http://www.w3.org/2000/svg">
<g clip-path="url(#clip0_3_9421)">
<path fill-rule="evenodd" clip-rule="evenodd" d="M12.0001 0.25C11.1312 0.25 10.3023 0.60522 9.69456 1.23035C9.19823 1.74085 8.88214 2.39713 8.78334 3.09732C7.39118 3.85635 6.20437 4.95943 5.33064 6.30746C4.37677 7.77915 3.83131 9.48823 3.75085 11.2515C3.75033 11.2629 3.75007 11.2743 3.75007 11.2857V15.0972C3.66477 15.768 3.43076 16.4087 3.06719 16.9697C2.69609 17.5422 2.20079 18.0151 1.62259 18.3519C1.32972 18.5225 1.18765 18.8683 1.27599 19.1955C1.36434 19.5227 1.66115 19.75 2.00007 19.75H8.25V20C8.25 20.9946 8.64509 21.9484 9.34835 22.6517C10.0516 23.3549 11.0054 23.75 12 23.75C12.9946 23.75 13.9484 23.3549 14.6517 22.6517C15.3549 21.9484 15.75 20.9946 15.75 20V19.75H22.0001C22.339 19.75 22.6358 19.5227 22.7241 19.1955C22.8125 18.8683 22.6704 18.5225 22.3775 18.3519C21.7993 18.0151 21.304 17.5422 20.9329 16.9697C20.5694 16.4087 20.3354 15.768 20.2501 15.0972V11.2857C20.2501 11.2743 20.2498 11.2629 20.2493 11.2515C20.1688 9.48823 19.6234 7.77915 18.6695 6.30746C17.7958 4.95943 16.609 3.85635 15.2168 3.09732C15.118 2.39713 14.8019 1.74085 14.3056 1.23035C13.6978 0.60522 12.8689 0.25 12.0001 0.25Z" fill="#212529"/>
<circle cx="18.5" cy="5.5" r="5.5" fill="white"/>
<circle cx="18.5" cy="5.5" r="3.5" fill="#5F3196"/>
</g>
<defs>
<clipPath id="clip0_3_9421">
<rect width="24" height="24" fill="white"/>
</clipPath>
</defs>
</svg>
